<svg width="0" height="0" class="hidden">
  <symbol xmlns="http://www.w3.org/2000/svg" viewBox="0 0 14 24" id="icon-angle-left">
    <path d="M13 0L1 12l12 12" stroke="#FFF" fill="none" fill-rule="evenodd"></path>
  </symbol>
  <symbol xmlns="http://www.w3.org/2000/svg" viewBox="0 0 14 24" id="icon-angle-right">
    <path d="M1 0l12 12L1 24" stroke="#FFF" fill="none" fill-rule="evenodd"></path>
  </symbol>
  <symbol xmlns="http://www.w3.org/2000/svg" viewBox="0 0 40 12" id="icon-arrow">
    <path d="M34.05 0l5.481 5.527h.008v.008L40 6l-.461.465v.063l-.062-.001L34.049 12l-.662-.668 4.765-4.805H0v-1h38.206l-4.82-4.86L34.05 0z"></path>
  </symbol>
  <symbol xmlns="http://www.w3.org/2000/svg" viewBox="0 0 16 16" id="icon-close">
    <path d="M14.364.222l1.414 1.414L9.414 8l6.364 6.364-1.414 1.414L8 9.414l-6.364 6.364-1.414-1.414L6.586 8 .222 1.636 1.636.222 8 6.586 14.364.222z" fill="#000" fill-rule="evenodd" opacity=".201"></path>
  </symbol>
  <symbol xmlns="http://www.w3.org/2000/svg" viewBox="0 0 20 14" id="icon-hamburger">
    <path d="M20 12v2H0v-2h20zm0-6v2H0V6h20zm0-6v2H0V0h20z" fill="#FFF" fill-rule="evenodd"></path>
  </symbol>
</svg>

